C:\Users\israe\Dropbox\PhDWork\ExperimentalData\subject7\145\P7S145W12_filtered35.mot
nRows=8
nColumns=28

name C:\Users\israe\Dropbox\PhDWork\ExperimentalData\subject7\145\P7S145W12_filtered35.mot
datacolumns 28
datarows 8
range 0.5800000000 0.5870000000
endheader
time	ground_force_1_vx	ground_force_1_vy	ground_force_1_vz	ground_force_1_px	ground_force_1_py	ground_force_1_pz	ground_moment_1_mx	ground_moment_1_my	ground_moment_1_mz	ground_force_2_vx	ground_force_2_vy	ground_force_2_vz	ground_force_2_px	ground_force_2_py	ground_force_2_pz	ground_moment_2_mx	ground_moment_2_my	ground_moment_2_mz	ground_force_3_vx	ground_force_3_vy	ground_force_3_vz	ground_force_3_px	ground_force_3_py	ground_force_3_pz	ground_moment_3_mx	ground_moment_3_my	ground_moment_3_mz
        0.5800000000	        0.0000000000	        0.0000000000	       -0.0000000000	        0.1988394910	        0.0000558755	       -0.3004071320	       -0.0000000000	        0.0000000000	       -0.0000000000	       -0.0000000000	        0.0000000000	       -0.0000000000	        0.2029003487	       -0.0000795827	        0.4543649445	       -0.0000000000	       -0.0000000000	       -0.0000000000	       -1.7354829737	      343.1755688536	        2.4918725129	        0.2076431971	        0.0000770316	        1.3583900146	       16.8163081405	        2.0156982351	        3.5666035577	
        0.5810000000	       -0.0000000000	        0.0000000000	        0.0000000000	        0.1988394910	        0.0000558755	       -0.3004071320	       -0.0000000000	       -0.0000000000	       -0.0000000000	       -0.0000000000	        0.0000000000	       -0.0000000000	        0.2029003487	       -0.0000795827	        0.4543649445	       -0.0000000000	       -0.0000000000	       -0.0000000000	       -1.4772845378	      346.3479776984	        2.4328275656	        0.2076431971	        0.0000770316	        1.3583900146	       17.1571868790	        2.0507641900	        3.5708320123	
        0.5820000000	       -0.0000000000	        0.0000000000	        0.0000000000	        0.1988394910	        0.0000558755	       -0.3004071320	       -0.0000000000	       -0.0000000000	       -0.0000000000	       -0.0000000000	        0.0000000000	       -0.0000000000	        0.2029003487	       -0.0000795827	        0.4543649445	       -0.0000000000	       -0.0000000000	       -0.0000000000	       -1.2337137101	      349.5609384078	        2.3983020798	        0.2076431971	        0.0000770316	        1.3583900146	       17.5035796226	        2.0849053845	        3.5750718125	
        0.5830000000	       -0.0000000000	        0.0000000000	        0.0000000000	        0.1988394910	        0.0000558755	       -0.3004071320	        0.0000000000	       -0.0000000000	       -0.0000000000	       -0.0000000000	        0.0000000000	       -0.0000000000	        0.2029003487	       -0.0000795827	        0.4543649445	       -0.0000000000	       -0.0000000000	       -0.0000000000	       -1.0043829356	      352.8181067932	        2.3874560779	        0.2076431971	        0.0000770316	        1.3583900146	       17.8560956772	        2.1181416988	        3.5787125807	
        0.5840000000	       -0.0000000000	        0.0000000000	        0.0000000000	        0.1988394910	        0.0000558755	       -0.3004071320	        0.0000000000	       -0.0000000000	       -0.0000000000	       -0.0000000000	        0.0000000000	       -0.0000000000	        0.2029003487	       -0.0000795827	        0.4543649445	       -0.0000000000	       -0.0000000000	       -0.0000000000	       -0.7875333537	      356.1242956955	        2.3979785945	        0.2076431971	        0.0000770316	        1.3583900146	       18.2146210190	        2.1507268799	        3.5812440875	
        0.5850000000	       -0.0000000000	        0.0000000000	        0.0000000000	        0.1988394910	        0.0000558755	       -0.3004071320	        0.0000000000	       -0.0000000000	        0.0000000000	       -0.0000000000	        0.0000000000	       -0.0000000000	        0.2029003487	       -0.0000795827	        0.4543649445	       -0.0000000000	       -0.0000000000	       -0.0000000000	       -0.5798221220	      359.4851036335	        2.4264136055	        0.2076431971	        0.0000770316	        1.3583900146	       18.5785017200	        2.1830894592	        3.5823519453	
        0.5860000000	       -0.0000000000	        0.0000000000	        0.0000000000	        0.1988394910	        0.0000558755	       -0.3004071320	        0.0000000000	       -0.0000000000	        0.0000000000	       -0.0000000000	        0.0000000000	       -0.0000000000	        0.2029003487	       -0.0000795827	        0.4543649445	       -0.0000000000	       -0.0000000000	       -0.0000000000	       -0.3771426182	      362.9076813099	        2.4682347174	        0.2076431971	        0.0000770316	        1.3583900146	       18.9469719142	        2.2156402450	        3.5820451088	
        0.5870000000	       -0.0000000000	        0.0000000000	        0.0000000000	        0.1988394910	        0.0000558755	       -0.3004071320	        0.0000000000	       -0.0000000000	        0.0000000000	       -0.0000000000	        0.0000000000	       -0.0000000000	        0.2029003487	       -0.0000795827	        0.4543649445	       -0.0000000000	       -0.0000000000	       -0.0000000000	       -0.1756211520	      366.4009192557	        2.5179483476	        0.2076431971	        0.0000770316	        1.3583900146	       19.3193386917	        2.2487309779	        3.5805199115	
